<svg width="100" height="100" viewBox="0 0 100 100" fill="none" xmlns="http://www.w3.org/2000/svg">
<path d="M14.5833 14.5833V12.5833C13.4787 12.5833 12.5833 13.4788 12.5833 14.5833H14.5833ZM43.75 14.5833H45.75C45.75 13.4788 44.8546 12.5833 43.75 12.5833V14.5833ZM43.75 43.75V45.75C44.8546 45.75 45.75 44.8546 45.75 43.75H43.75ZM14.5833 43.75H12.5833C12.5833 44.8546 13.4787 45.75 14.5833 45.75V43.75ZM43.75 56.25H45.75C45.75 55.1454 44.8546 54.25 43.75 54.25V56.25ZM43.75 85.4167V87.4167C44.8546 87.4167 45.75 86.5212 45.75 85.4167H43.75ZM14.5833 85.4167H12.5833C12.5833 86.5212 13.4787 87.4167 14.5833 87.4167V85.4167ZM14.5833 56.25V54.25C13.4787 54.25 12.5833 55.1454 12.5833 56.25H14.5833ZM20.8333 58.25C21.9379 58.25 22.8333 57.3546 22.8333 56.25C22.8333 55.1454 21.9379 54.25 20.8333 54.25V58.25ZM37.5 54.25C36.3954 54.25 35.5 55.1454 35.5 56.25C35.5 57.3546 36.3954 58.25 37.5 58.25V54.25ZM56.25 14.5833V12.5833C55.1454 12.5833 54.25 13.4788 54.25 14.5833H56.25ZM85.4166 14.5833H87.4166C87.4166 13.4788 86.5212 12.5833 85.4166 12.5833V14.5833ZM85.4166 43.75V45.75C86.5212 45.75 87.4166 44.8546 87.4166 43.75H85.4166ZM56.25 43.75H54.25C54.25 44.8546 55.1454 45.75 56.25 45.75V43.75ZM54.25 20.8333C54.25 21.9379 55.1454 22.8333 56.25 22.8333C57.3546 22.8333 58.25 21.9379 58.25 20.8333H54.25ZM58.25 37.5C58.25 36.3954 57.3546 35.5 56.25 35.5C55.1454 35.5 54.25 36.3954 54.25 37.5H58.25ZM56.25 56.25V54.25C55.1454 54.25 54.25 55.1454 54.25 56.25H56.25ZM85.4166 56.25H87.4166C87.4166 55.1454 86.5212 54.25 85.4166 54.25V56.25ZM85.4166 85.4167V87.4167C86.5212 87.4167 87.4166 86.5212 87.4166 85.4167H85.4166ZM56.25 85.4167H54.25C54.25 86.5212 55.1454 87.4167 56.25 87.4167V85.4167ZM14.5833 16.5833H43.75V12.5833H14.5833V16.5833ZM41.75 14.5833V43.75H45.75V14.5833H41.75ZM43.75 41.75H14.5833V45.75H43.75V41.75ZM16.5833 43.75V14.5833H12.5833V43.75H16.5833ZM41.75 56.25V85.4167H45.75V56.25H41.75ZM43.75 83.4167H14.5833V87.4167H43.75V83.4167ZM16.5833 85.4167V56.25H12.5833V85.4167H16.5833ZM14.5833 58.25H20.8333V54.25H14.5833V58.25ZM37.5 58.25H43.75V54.25H37.5V58.25ZM56.25 16.5833H85.4166V12.5833H56.25V16.5833ZM83.4166 14.5833V43.75H87.4166V14.5833H83.4166ZM85.4166 41.75H56.25V45.75H85.4166V41.75ZM58.25 20.8333V14.5833H54.25V20.8333H58.25ZM58.25 43.75V37.5H54.25V43.75H58.25ZM56.25 58.25H85.4166V54.25H56.25V58.25ZM83.4166 56.25V85.4167H87.4166V56.25H83.4166ZM85.4166 83.4167H56.25V87.4167H85.4166V83.4167ZM58.25 85.4167V56.25H54.25V85.4167H58.25Z" fill="#001A72"/>
</svg>
