<svg width="40" height="43" viewBox="0 0 40 43" fill="none" xmlns="http://www.w3.org/2000/svg">
<path fill-rule="evenodd" clip-rule="evenodd" d="M10.3075 37.3769C11.7355 37.3769 12.8975 38.6318 12.8975 40.1766C12.8975 41.7214 11.7355 42.9785 10.3075 42.9785C8.8795 42.9785 7.7195 41.7214 7.7195 40.1766C7.7195 38.6318 8.8795 37.3769 10.3075 37.3769ZM32.8681 37.3769C34.2981 37.3769 35.4601 38.6318 35.4601 40.1766C35.4601 41.7214 34.2981 42.9785 32.8681 42.9785C31.4401 42.9785 30.2801 41.7214 30.2801 40.1766C30.2801 38.6318 31.4401 37.3769 32.8681 37.3769ZM1.75589 0.720111L5.91589 1.49901C6.5859 1.62666 7.0959 2.22815 7.1539 2.96378L7.6239 9.02405L9.3716 9.02486C9.65679 9.025 9.93896 9.02514 10.2181 9.02527L13.4268 9.02692C13.6825 9.02706 13.9354 9.0272 14.1855 9.02734L17.7283 9.02944C17.9508 9.02958 18.1707 9.02973 18.388 9.02987L20.8707 9.03158C21.0674 9.03172 21.2615 9.03187 21.4532 9.03201L23.6369 9.03375C23.8093 9.0339 23.9793 9.03405 24.1471 9.03419L26.051 9.03596C26.2007 9.03611 26.3483 9.03626 26.4937 9.03641L27.745 9.03775C27.8778 9.0379 28.0085 9.03805 28.1372 9.0382L29.5863 9.04002C29.6993 9.04018 29.8105 9.04033 29.9197 9.04048L31.1432 9.04233C31.2381 9.04249 31.3312 9.04264 31.4226 9.0428L32.2003 9.0442C32.2817 9.04436 32.3616 9.04452 32.4399 9.04467L33.3061 9.04657C33.3724 9.04673 33.4372 9.04689 33.5005 9.04705L34.0337 9.04849C34.0888 9.04865 34.1427 9.04881 34.1953 9.04898L34.7668 9.05093C34.8097 9.05109 34.8513 9.05125 34.8919 9.05142L35.2275 9.0529C35.2616 9.05306 35.2947 9.05323 35.3268 9.05339L35.6662 9.0554C35.6909 9.05556 35.7147 9.05573 35.7376 9.0559L35.9226 9.05742C35.9409 9.05759 35.9584 9.05776 35.9752 9.05793L36.1084 9.05946C36.1213 9.05963 36.1335 9.05981 36.1452 9.05998L36.2359 9.06153C36.2444 9.0617 36.2525 9.06188 36.2601 9.06205L36.3174 9.06362C36.3226 9.0638 36.3275 9.06397 36.3321 9.06415L36.3736 9.06627C36.3762 9.06644 36.3785 9.06662 36.3807 9.0668C36.4002 9.06877 36.403 9.06913 36.4059 9.06949C37.5199 9.24474 38.4999 9.87435 39.1679 10.8436C39.8359 11.8108 40.1159 13.0029 39.9559 14.1972L38.0579 28.3862C37.6999 31.0864 35.5319 33.1223 33.0119 33.1223H11.1699C8.5359 33.1223 6.3059 30.8982 6.0919 28.053L4.25989 4.48263L1.24589 3.92009C0.42789 3.76431 -0.11811 2.92699 0.0218901 2.04208C0.16589 1.15716 0.955891 0.58164 1.75589 0.720111ZM8.97036 12.2702L7.8759 12.2695L9.0819 27.7869C9.1699 28.9812 10.0719 29.8769 11.1739 29.8769H33.0079C34.0499 29.8769 34.9399 29.0375 35.0879 27.9232L36.9879 13.7321C37.0319 13.3945 36.9539 13.057 36.7639 12.7844C36.5759 12.5096 36.2999 12.3322 35.9879 12.2846C35.9735 12.2852 35.939 12.2858 35.8853 12.2863L35.6677 12.2876C35.6222 12.2878 35.5722 12.288 35.5177 12.2882L34.3847 12.29C34.2891 12.2901 34.1897 12.2902 34.0867 12.2902L31.4227 12.2901C31.2741 12.29 31.1226 12.29 30.9685 12.2899L27.9282 12.2879C27.7461 12.2878 27.5619 12.2876 27.376 12.2875L25.6557 12.286C25.4597 12.2858 25.2623 12.2856 25.0635 12.2854L23.2414 12.2837C23.0356 12.2835 22.8288 12.2833 22.6212 12.2831L21.366 12.2818C21.1554 12.2816 20.9442 12.2814 20.7325 12.2812L18.8171 12.2793C18.6035 12.279 18.3898 12.2788 18.1761 12.2786L16.8948 12.2773C16.6816 12.2771 16.4686 12.2769 16.256 12.2767L14.9856 12.2754C14.7749 12.2752 14.5648 12.275 14.3555 12.2748L12.4945 12.2731C12.2906 12.2729 12.0879 12.2727 11.8863 12.2726L9.53448 12.2706C9.34469 12.2705 9.15661 12.2703 8.97036 12.2702ZM29.7957 17.0214C30.6237 17.0214 31.2957 17.7484 31.2957 18.6441C31.2957 19.5398 30.6237 20.2668 29.7957 20.2668H24.2517C23.4217 20.2668 22.7517 19.5398 22.7517 18.6441C22.7517 17.7484 23.4217 17.0214 24.2517 17.0214H29.7957Z" fill="#696969"/>
</svg>
