<svg width="80" height="80" viewBox="0 0 80 80" fill="none" xmlns="http://www.w3.org/2000/svg">
<path d="M42 23.3333C42 22.2288 41.1046 21.3333 40 21.3333C38.8954 21.3333 38 22.2288 38 23.3333H42ZM40 40H38C38 40.5304 38.2107 41.0391 38.5858 41.4142L40 40ZM46.9191 49.7475C47.7002 50.5286 48.9665 50.5286 49.7475 49.7475C50.5286 48.9665 50.5286 47.7002 49.7475 46.9191L46.9191 49.7475ZM40 4.5C41.1046 4.5 42 3.60457 42 2.5C42 1.39543 41.1046 0.5 40 0.5V4.5ZM72.9155 18.1564C72.3039 17.2366 71.0625 16.9867 70.1426 17.5983C69.2228 18.2099 68.973 19.4513 69.5845 20.3711L72.9155 18.1564ZM38 23.3333V40H42V23.3333H38ZM38.5858 41.4142L46.9191 49.7475L49.7475 46.9191L41.4142 38.5858L38.5858 41.4142ZM75.5 40C75.5 59.6061 59.6061 75.5 40 75.5V79.5C61.8152 79.5 79.5 61.8152 79.5 40H75.5ZM40 75.5C20.3939 75.5 4.5 59.6061 4.5 40H0.5C0.5 61.8152 18.1848 79.5 40 79.5V75.5ZM4.5 40C4.5 20.3939 20.3939 4.5 40 4.5V0.5C18.1848 0.5 0.5 18.1848 0.5 40H4.5ZM69.5845 20.3711C73.3222 25.9926 75.5 32.7389 75.5 40H79.5C79.5 31.9268 77.0759 24.4138 72.9155 18.1564L69.5845 20.3711Z" fill="#001A72"/>
</svg>
