<svg width="96" height="36" viewBox="0 0 96 36" fill="none" xmlns="http://www.w3.org/2000/svg">
<path d="M0.890625 35.6406L0.164062 3.53125C13.2109 1.60938 20.4531 6.27344 21.8906 17.5234C22.9219 28.8359 15.9219 34.875 0.890625 35.6406ZM7.125 26.9922C13.375 26.4297 15.9141 23.2344 14.7422 17.4062C13.7891 11.8438 11.0781 9.33594 6.60938 9.88281L7.125 26.9922ZM41.9062 17.5234L46.5469 22.3516C43.5938 26.6016 39.4062 28.7344 33.9844 28.75C25.3594 28.75 21 24.8359 20.9062 17.0078C20.9688 8.44531 24.8438 4.15625 32.5312 4.14062C38.6406 4.25 42.25 6.89062 43.3594 12.0625L32.25 21.0156C36.7656 21.5156 39.9844 20.3516 41.9062 17.5234ZM28.5703 18.3906L36.5625 12.1797C34.125 10.0703 31.6719 9.85156 29.2031 11.5234C26.9688 13.6328 26.7578 15.9219 28.5703 18.3906ZM42.8438 6.95312L42.7031 3.83594L52.3828 2.14844L52.6875 13.3047L61.9219 1.77344L68.7891 7.75L58.6172 19.4219L73.4062 29.0547L72.8203 35.9219L55.0547 23.7578L55.125 35.1953L48.5859 35.9688L46.9922 6.48438L42.8438 6.95312ZM82.5469 4.96094C86.1719 4.96094 89.2656 6.20312 91.8281 8.6875C94.3906 11.1562 95.6719 14.1328 95.6719 17.6172C95.6719 21.1172 94.3906 24.1094 91.8281 26.5938C89.2656 29.0625 86.1719 30.2969 82.5469 30.2969C78.9219 30.2969 75.8281 29.0625 73.2656 26.5938C70.7031 24.1094 69.4219 21.1172 69.4219 17.6172C69.4219 14.1328 70.7031 11.1562 73.2656 8.6875C75.8281 6.20312 78.9219 4.96094 82.5469 4.96094ZM90.9844 14.7344C90.8281 15.4688 90.4609 16.1094 89.8828 16.6562C89.0859 17.4062 88.1328 17.7812 87.0234 17.7812C85.9141 17.7812 84.9609 17.4141 84.1641 16.6797C83.3828 15.9297 82.9922 15.0312 82.9922 13.9844C82.9922 12.9375 83.3828 12.0469 84.1641 11.3125C84.9609 10.5781 85.9141 10.2109 87.0234 10.2109C87.2422 10.2109 87.4453 10.2266 87.6328 10.2578C86.7734 9.82031 85.8203 9.60156 84.7734 9.60156C83.0391 9.60156 81.5547 10.2031 80.3203 11.4062C79.1016 12.5938 78.4922 14.0312 78.4922 15.7188C78.4922 17.4062 79.1016 18.8438 80.3203 20.0312C81.5547 21.2188 83.0391 21.8125 84.7734 21.8125C86.5078 21.8125 87.9844 21.2188 89.2031 20.0312C90.4375 18.8438 91.0547 17.4062 91.0547 15.7188C91.0547 15.375 91.0312 15.0469 90.9844 14.7344Z" fill="black"/>
</svg>
