<svg width="80" height="46" viewBox="0 0 80 46" fill="none" xmlns="http://www.w3.org/2000/svg">
<path d="M77.5 2.16667H79.5C79.5 1.35775 79.0127 0.628475 78.2654 0.318913C77.518 0.00935069 76.6578 0.180462 76.0858 0.752458L77.5 2.16667ZM44.1667 35.5L42.7525 36.9142C43.5335 37.6953 44.7998 37.6953 45.5809 36.9142L44.1667 35.5ZM27.5 18.8333L28.9142 17.4191C28.1332 16.6381 26.8668 16.6381 26.0858 17.4191L27.5 18.8333ZM1.08579 42.4191C0.304738 43.2002 0.304738 44.4665 1.08579 45.2476C1.86684 46.0286 3.13316 46.0286 3.91421 45.2476L1.08579 42.4191ZM75.5 27.1667C75.5 28.2712 76.3954 29.1667 77.5 29.1667C78.6046 29.1667 79.5 28.2712 79.5 27.1667H75.5ZM52.5 0.166672C51.3954 0.166672 50.5 1.0621 50.5 2.16667C50.5 3.27124 51.3954 4.16667 52.5 4.16667V0.166672ZM65 4.16667C66.1046 4.16667 67 3.27124 67 2.16667C67 1.0621 66.1046 0.166672 65 0.166672V4.16667ZM76.0858 0.752458L42.7525 34.0858L45.5809 36.9142L78.9142 3.58089L76.0858 0.752458ZM45.5809 34.0858L28.9142 17.4191L26.0858 20.2476L42.7525 36.9142L45.5809 34.0858ZM26.0858 17.4191L1.08579 42.4191L3.91421 45.2476L28.9142 20.2476L26.0858 17.4191ZM79.5 27.1667V2.16667H75.5V27.1667H79.5ZM52.5 4.16667H65V0.166672H52.5V4.16667Z" fill="#001A72"/>
</svg>
