<svg width="100" height="100" viewBox="0 0 100 100" fill="none" xmlns="http://www.w3.org/2000/svg">
<path d="M87.5 52C88.6046 52 89.5 51.1046 89.5 50C89.5 48.8954 88.6046 48 87.5 48V52ZM52 12.5C52 11.3954 51.1046 10.5 50 10.5C48.8954 10.5 48 11.3954 48 12.5H52ZM12.5 48C11.3954 48 10.5 48.8954 10.5 50C10.5 51.1046 11.3954 52 12.5 52V48ZM48 87.5C48 88.6046 48.8954 89.5 50 89.5C51.1046 89.5 52 88.6046 52 87.5H48ZM41.9416 38.8338C42.6783 38.0108 42.6082 36.7464 41.7852 36.0097C40.9621 35.2731 39.6977 35.3431 38.9611 36.1662L41.9416 38.8338ZM87.5 48C67.8939 48 52 32.1061 52 12.5H48C48 34.3152 65.6847 52 87.5 52V48ZM12.5 52C32.1061 52 48 67.8939 48 87.5H52C52 65.6848 34.3153 48 12.5 48V52ZM52 87.5C52 67.8939 67.8939 52 87.5 52V48C65.6847 48 48 65.6847 48 87.5H52ZM38.9611 36.1662C32.4579 43.4321 23.0137 48 12.5 48V52C24.1988 52 34.7117 46.9117 41.9416 38.8338L38.9611 36.1662Z" fill="#001A72"/>
</svg>
